HIERARCHY
ROOT Root
{
	OFFSET 0.00 0.00 0.00
	CHANNELS 6 Xposition Yposition Zposition Xrotation Yrotation Zrotation
	JOINT L_Femur
	{
		OFFSET 3.93700 0.00000 0.00000
		CHANNELS 3 Xrotation Zrotation Yrotation
		JOINT L_Tibia
		{
			OFFSET 0.00000 -18.44568 0.00000
			CHANNELS 1 Xrotation
			JOINT L_Foot
			{
				OFFSET -0.00000 -15.49322 0.19672
				CHANNELS 2 Xrotation Zrotation
				JOINT L_Toe
				{
					OFFSET 0.00000 -0.82039 5.66291
					CHANNELS 1 Xrotation
					End Site
					{
						OFFSET 0.00000 0.00000 1.71250
					}
				}
			}
		}
	}
	JOINT R_Femur
	{
		OFFSET -3.93700 0.00000 0.00000
		CHANNELS 3 Xrotation Zrotation Yrotation
		JOINT R_Tibia
		{
			OFFSET -0.00000 -18.44568 -0.00000
			CHANNELS 1 Xrotation
			JOINT R_Foot
			{
				OFFSET -0.00000 -15.49322 0.19672
				CHANNELS 2 Xrotation Zrotation
				JOINT R_Toe
				{
					OFFSET 0.00000 -0.96513 5.62412
					CHANNELS 1 Xrotation
					End Site
					{
						OFFSET 0.00000 0.00000 1.44139
					}
				}
			}
		}
	}
	JOINT LowerBack
	{
		OFFSET 0.00000 0.03937 0.00000
		CHANNELS 3 Xrotation Zrotation Yrotation
		JOINT Thorax
		{
			OFFSET 0.00000 8.42896 0.00000
			CHANNELS 3 Xrotation Zrotation Yrotation
			JOINT Neck
			{
				OFFSET 0.00000 7.29157 0.00000
				CHANNELS 3 Xrotation Zrotation Yrotation
				JOINT Head
				{
					OFFSET 0.00000 4.22110 0.00000
					CHANNELS 3 Xrotation Yrotation Zrotation
					End Site
					{
						OFFSET 0.00000 4.22110 0.00000
					}
				}
			}
			JOINT L_Collar
			{
				OFFSET 0.00000 7.29157 0.00000
				CHANNELS 2 Yrotation Zrotation
				JOINT L_Humerus
				{
					OFFSET 5.90550 0.00000 0.00000
					CHANNELS 3 Xrotation Yrotation Zrotation
					JOINT L_Elbow
					{
						OFFSET 11.59585 0.00000 0.00000
						CHANNELS 2 Yrotation Xrotation
						JOINT L_Wrist
						{
							OFFSET 8.38509 0.00000 0.00000
							CHANNELS 2 Zrotation Yrotation
							JOINT LeIndexMP
							{
								OFFSET 1.09197 2.42158 -0.70498
								CHANNELS 3 Zrotation Xrotation Yrotation
								JOINT LeIndexPIP
								{
									OFFSET 0.54914 1.69807 0.00037
									CHANNELS 3 Xrotation Yrotation Zrotation
									JOINT LeIndexDIP
									{
										OFFSET 0.34223 0.98477 -0.13890
										CHANNELS 3 Xrotation Yrotation Zrotation
										End Site
										{
											OFFSET 0.30414 0.90123 -0.07454
										}
									}
								}
							}
							JOINT LeMiddleMP
							{
								OFFSET 0.20570 2.50174 -0.52444
								CHANNELS 3 Zrotation Xrotation Yrotation
								JOINT LeMiddlePIP
								{
									OFFSET -0.25811 1.79891 -0.09553
									CHANNELS 3 Xrotation Yrotation Zrotation
									JOINT LeMiddleDIP
									{
										OFFSET -0.15680 1.09225 -0.05298
										CHANNELS 3 Xrotation Yrotation Zrotation
										End Site
										{
											OFFSET -0.15297 1.06215 -0.02141
										}
									}
								}
							}
							JOINT LeRingMP
							{
								OFFSET -0.68298 2.32110 -0.37433
								CHANNELS 3 Zrotation Xrotation Yrotation
								JOINT LeRingPIP
								{
									OFFSET -0.56320 1.55045 -0.08792
									CHANNELS 3 Xrotation Yrotation Zrotation
									JOINT LeRingDIP
									{
										OFFSET -0.34522 0.95085 -0.05080
										CHANNELS 3 Xrotation Yrotation Zrotation
										End Site
										{
											OFFSET -0.35953 0.99671 -0.01102
										}
									}
								}
							}
							JOINT LePinkyMP
							{
								OFFSET -1.60546 2.01050 -0.41468
								CHANNELS 3 Zrotation Xrotation Yrotation
								JOINT LePinkyPIP
								{
									OFFSET -0.81697 0.78962 -0.37932
									CHANNELS 3 Xrotation Yrotation Zrotation
									JOINT LePinkyDIP
									{
										OFFSET -0.51445 0.51600 -0.16745
										CHANNELS 3 Xrotation Yrotation Zrotation
										End Site
										{
											OFFSET -0.66687 0.68407 -0.15932
										}
									}
								}
							}
							JOINT LeThumbCMC
							{
								OFFSET 1.32642 0.01652 -0.91353
								CHANNELS 3 Xrotation Yrotation Zrotation
								JOINT LeThumbMP
								{
									OFFSET 0.56037 -0.04452 -1.10949
									CHANNELS 3 Xrotation Yrotation Zrotation
									JOINT LeThumbIP
									{
										OFFSET 0.56894 -0.31394 -0.93677
										CHANNELS 3 Xrotation Yrotation Zrotation
										End Site
										{
											OFFSET 0.15316 0.30870 -1.10710
										}
									}
								}
							}
						}
					}
				}
			}
			JOINT R_Collar
			{
				OFFSET 0.00000 7.29157 0.00000
				CHANNELS 2 Yrotation Zrotation
				JOINT R_Humerus
				{
					OFFSET -5.90550 0.00000 0.00000
					CHANNELS 3 Xrotation Yrotation Zrotation
					JOINT R_Elbow
					{
						OFFSET -11.59585 -0.00000 0.00000
						CHANNELS 2 Yrotation Xrotation
						JOINT R_Wrist
						{
							OFFSET -8.38509 -0.00000 0.00000
							CHANNELS 2 Zrotation Yrotation
							JOINT RiIndexMP
							{
								OFFSET -1.68547 2.46874 -0.24056
								CHANNELS 3 Zrotation Xrotation Yrotation
								JOINT RiIndexPIP
								{
									OFFSET -0.10277 1.47086 -0.45732
									CHANNELS 3 Xrotation Yrotation Zrotation
									JOINT RiIndexDIP
									{
										OFFSET -0.08662 0.93830 -0.07738
										CHANNELS 3 Xrotation Yrotation Zrotation
										End Site
										{
											OFFSET -0.07343 0.79543 -0.06560
										}
									}
								}
							}
							JOINT RiMiddleMP
							{
								OFFSET -0.85407 2.65552 -0.00744
								CHANNELS 3 Zrotation Xrotation Yrotation
								JOINT RiMiddlePIP
								{
									OFFSET -0.20884 1.70284 -0.28882
									CHANNELS 3 Xrotation Yrotation Zrotation
									JOINT RiMiddleDIP
									{
										OFFSET -0.13336 1.10092 -0.23410
										CHANNELS 3 Xrotation Yrotation Zrotation
										End Site
										{
											OFFSET -0.11503 0.94711 -0.19274
										}
									}
								}
							}
							JOINT RiRingMP
							{
								OFFSET 0.20418 2.54564 0.23484
								CHANNELS 3 Zrotation Xrotation Yrotation
								JOINT RiRingPIP
								{
									OFFSET -0.04892 1.76626 -0.37155
									CHANNELS 3 Xrotation Yrotation Zrotation
									JOINT RiRingDIP
									{
										OFFSET -0.02641 0.95308 -0.21249
										CHANNELS 3 Xrotation Yrotation Zrotation
										End Site
										{
											OFFSET -0.02537 0.91606 -0.19270
										}
									}
								}
							}
							JOINT RiPinkyMP
							{
								OFFSET 0.88895 2.32064 0.25776
								CHANNELS 3 Zrotation Xrotation Yrotation
								JOINT RiPinkyPIP
								{
									OFFSET 0.43367 1.29723 -0.28031
									CHANNELS 3 Xrotation Yrotation Zrotation
									JOINT RiPinkyDIP
									{
										OFFSET 0.24248 0.73091 -0.16650
										CHANNELS 3 Xrotation Yrotation Zrotation
										End Site
										{
											OFFSET 0.26427 0.78713 -0.16490
										}
									}
								}
							}
							JOINT RiThumbCMC
							{
								OFFSET -1.27353 -0.34685 -0.51300
								CHANNELS 3 Xrotation Yrotation Zrotation
								JOINT RiThumbMP
								{
									OFFSET -0.97380 1.27673 -0.24634
									CHANNELS 3 Xrotation Yrotation Zrotation
									JOINT RiThumbIP
									{
										OFFSET -0.70681 0.85176 -0.10722
										CHANNELS 3 Xrotation Yrotation Zrotation
										End Site
										{
											OFFSET -0.60213 0.74049 -0.11612
										}
									}
								}
							}
						}
					}
				}
			}
		}
	}
}
MOTION
Frames: 4
Frame Time: 0.008333
 6.1206 38.1176 -10.901 13.4 4.7145 1.6417 -19.789 4.9965 10.4215 24.8117 -3.3454 -11.3043 8.1273 -16.9586 -6.9684 -28.5356 19.1081 -7.2322 11.9919 8.1797 -17.3944 -5.3693 -0.4097 -3.9493 -0.5839 -1.4081 22.5946 6.8704 -7.8636 -16.5883 -8.9589 -1.3755 -0.0157 0.3841 -18.3263 6.7548 -15.7972 -38.813 16.018 -79.6291 -90.0 29.2566 -10.1045 10.5393 -14.7388 5.0617 -1.9133 -15.5099 5.3391 -1.9773 4.2663 -4.008 -0.0483 -24.1979 -3.3019 -1.1127 -36.6809 -4.7395 -2.197 -12.027 -7.0503 -4.4631 -14.1053 -5.123 0.1516 -19.8295 -7.1746 -0.1465 -32.8365 7.796 -4.6143 -10.055 -9.5063 1.6293 -10.2966 -9.738 1.648 32.6082 3.6166 53.9402 9.9417 8.0041 2.8745 -39.5566 -20.8736 -20.5048 -0.2966 2.5943 -23.923 -11.5998 14.1652 25.297 8.6981 80.7089 87.5741 -3.2497 10.7303 0.4712 -23.842 -1.8417 -2.7605 -11.7163 -1.05 -1.2615 -5.887 10.573 1.4508 -18.8436 -2.2692 -1.0436 -5.4241 -0.6873 -0.2231 -3.4931 1.1693 -0.6327 -5.6848 -0.156 -0.0001 2.1681 0.0594 -0.004 9.8516 0.4389 2.2509 -3.6056 1.3458 0.8262 -8.4951 3.0703 2.0703 7.2569 -44.2179 13.8595 -3.1408 -2.8413 -3.1417 11.1237 12.9036 11.1281 
6.1202 38.1171 -10.9008 13.3938 4.7122 1.6389 -19.7975 5.0134 10.4216 24.846 -3.3517 -11.2986 8.1268 -16.9527 -6.9651 -28.5312 19.1109 -7.2318 11.9913 8.1712 -17.3907 -5.3707 -0.4093 -3.9492 -0.5854 -1.4071 22.6015 6.8782 -7.8554 -16.6028 -8.9377 -1.3762 -0.0156 0.3845 -18.302 6.7321 -15.8045 -38.7841 16.0761 -79.5576 -90.0 29.1337 -10.1433 10.5461 -14.4398 4.9544 -1.8875 -15.2989 5.2631 -1.9601 4.1711 -4.2986 -0.0796 -23.139 -3.1695 -1.0355 -37.4036 -4.8149 -2.269 -12.0737 -6.9684 -4.4199 -14.3081 -5.1964 0.1446 -19.6254 -7.1022 -0.1323 -32.9005 7.8129 -4.6016 -10.2373 -9.6812 1.6435 -10.041 -9.4929 1.6282 32.5145 3.6912 53.8127 10.059 8.1025 2.9006 -39.2655 -20.7906 -20.3218 -0.2966 2.5925 -23.8851 -11.6142 14.1813 25.2814 8.6175 80.7354 87.6148 -3.2405 10.9062 0.4992 -23.7289 -1.8358 -2.7458 -11.8767 -1.0625 -1.2802 -5.9348 10.8713 1.5231 -19.5339 -2.3448 -1.0956 -4.9679 -0.6304 -0.2019 -3.5178 1.251 -0.6301 -5.9354 -0.1628 -0.0005 2.5185 0.069 -0.0049 9.8652 0.3003 2.328 -3.286 1.229 0.7497 -8.7642 3.1616 2.1427 7.4279 -43.8319 14.0183 -3.4139 -3.0737 -3.415 11.0681 12.8268 11.0726 
6.1192 38.1174 -10.9006 13.3962 4.7157 1.6368 -19.7888 5.0034 10.4214 24.8189 -3.3412 -11.3021 8.1256 -16.9533 -6.9606 -28.5305 19.108 -7.2272 12.004 8.1507 -17.3588 -5.3725 -0.404 -4.0151 -0.5847 -1.3986 22.6068 6.8753 -7.8427 -16.5626 -8.9299 -1.3722 -0.0151 0.3738 -18.2712 6.7078 -15.8116 -38.7788 16.0497 -79.5614 -90.0 29.0484 -10.1417 10.5192 -14.3425 4.9195 -1.8789 -15.4042 5.301 -1.9687 4.0911 -4.1816 -0.0816 -22.9826 -3.1498 -1.0243 -37.5196 -4.827 -2.2807 -12.1378 -6.7788 -4.3121 -14.6053 -5.3037 0.1338 -19.4879 -7.0534 -0.1229 -32.8822 7.7535 -4.9018 -9.6641 -9.1314 1.5969 -10.4764 -9.9104 1.6613 32.4503 3.8511 53.8831 10.0318 8.0796 2.8945 -39.3671 -20.8197 -20.3856 -0.3073 2.66 -23.7378 -11.59 14.0889 25.2462 8.5713 80.7309 87.612 -3.2411 10.8819 0.4954 -23.7422 -1.8365 -2.7475 -12.4881 -1.1097 -1.3517 -5.9006 10.7139 1.4847 -19.3207 -2.3216 -1.0794 -5.1368 -0.6515 -0.2097 -3.4744 1.0792 -0.6371 -5.5669 -0.1527 0.0 2.3234 0.0636 -0.0044 9.9805 0.2009 2.4137 -3.0906 1.1573 0.7033 -8.8363 3.186 2.1622 7.5973 -43.7386 14.3638 -3.8295 -3.4228 -3.8307 11.2509 13.0799 11.2554 
6.1186 38.1175 -10.9002 13.3909 4.7171 1.639 -19.7797 5.0012 10.4237 24.8111 -3.3394 -11.3052 8.1334 -16.9457 -6.9615 -28.5304 19.1049 -7.2303 12.0063 8.1743 -17.3888 -5.3625 -0.4145 -3.9619 -0.6177 -1.4106 22.6094 6.8751 -7.8162 -16.5684 -8.9012 -1.359 -0.0153 0.376 -18.2639 6.7135 -15.7854 -38.7506 16.0091 -79.5434 -90.0 29.1376 -10.1528 10.5578 -14.6185 5.0186 -1.903 -15.2633 5.2503 -1.9572 4.1378 -3.9536 -0.0601 -23.5273 -3.2182 -1.0636 -37.1323 -4.7867 -2.2419 -12.0689 -6.9311 -4.3959 -14.4468 -5.2465 0.1396 -19.9402 -7.2138 -0.1543 -32.7687 7.7229 -4.9246 -9.6673 -9.1344 1.5972 -10.652 -10.0788 1.6738 32.3217 4.2895 53.6324 9.8951 7.965 2.8641 -38.8623 -20.674 -20.0689 -0.3025 2.6491 -23.842 -11.5769 14.1515 25.1933 8.5206 80.7289 87.6267 -3.3866 10.6458 0.4406 -23.6408 -1.8312 -2.7344 -12.3861 -1.1019 -1.3398 -6.0219 10.6606 1.4742 -19.5829 -2.3502 -1.0993 -4.8268 -0.6127 -0.1954 -3.5916 1.1677 -0.6517 -5.7346 -0.1573 -0.0002 2.0666 0.0566 -0.0038 10.0518 0.3979 2.3298 -3.1828 1.1912 0.7252 -6.1117 2.2448 1.4467 7.2523 -43.8925 14.0269 -3.6832 -3.3005 -3.6843 11.2559 13.0869 11.2604 
